#!OML:ASF X:\2005_08_12_Meinard\c3d\meinard.ASF
:FULLY-SPECIFIED
:DEGREES
1367
root -2.28695 17.2719 -5.43932 -34.5807 -66.5075 19.978
lowerback 31.6079 -2.47501 2.22495
upperback 2.70923 -3.1825 -3.18566
thorax -13.7658 -1.74657 -3.34441
lowerneck 2.43727 -19.0034 8.93267
upperneck -9.00977 -24.5921 5.86298
head -3.71858 -12.6974 1.60209
rclavicle 1.21259e-014 6.36111e-015
rhumerus 50.52 10.0686 33.4167
rradius 106.072
rwrist 21.7428
rhand -21.9609 -3.20045
rfingers 7.12502
rthumb 4.44655 -33.1338
lclavicle 1.21259e-014 6.36111e-015
lhumerus 158.999 139.368 223.132
lradius 13.3719
lwrist -49.9473
lhand -12.1071 -18.8089
lfingers 7.12502
lthumb 13.9538 10.7028
rfemur 5.64688 -8.46363 11.4977
rtibia 30.2872
rfoot -19.4709 4.63214
rtoes -10.9052
lfemur 16.6436 -4.13715 -10.8743
ltibia 24.3214
lfoot 13.2973 12.7817
ltoes -32.7654
1368
root -2.29691 17.2622 -5.45383 -34.6469 -66.3432 20.0986
lowerback 31.6324 -2.45335 2.24442
upperback 2.70722 -3.1504 -3.20803
thorax -13.7788 -1.73373 -3.39185
lowerneck 2.46949 -19.0865 9.08701
upperneck -9.3263 -24.6751 5.94777
head -3.8498 -12.7565 1.64858
rclavicle 5.96354e-015 -7.95139e-016
rhumerus 51.6321 10.7916 34.0939
rradius 108.135
rwrist 22.0551
rhand -22.752 -2.9706
rfingers 7.12502
rthumb 3.68258 -32.9185
lclavicle 5.96354e-015 -7.95139e-016
lhumerus 159.643 140.751 223.801
lradius 13.5767
lwrist -48.7669
lhand -11.9395 -18.6414
lfingers 7.12502
lthumb 14.1153 10.8592
rfemur 5.47296 -8.64041 11.3775
rtibia 30.6291
rfoot -19.4515 4.7958
rtoes -10.1708
lfemur 16.5952 -4.16122 -10.9128
ltibia 24.2922
lfoot 13.2057 12.73
ltoes -32.969
1369
root -2.3084 17.2531 -5.46879 -34.7126 -66.1943 20.217
lowerback 31.7094 -2.44193 2.28312
upperback 2.6876 -3.12486 -3.23427
thorax -13.8366 -1.72527 -3.44984
lowerneck 2.30977 -19.155 9.26037
upperneck -9.48498 -24.7721 5.93519
head -3.90572 -12.8134 1.63077
rclavicle 6.95746e-015 -3.22031e-014
rhumerus 52.6353 11.3782 34.6006
rradius 109.984
rwrist 22.3868
rhand -23.7691 -2.69717
rfingers 7.12502
rthumb 2.70031 -32.6598
lclavicle 6.95746e-015 -3.22031e-014
lhumerus 160.138 141.725 224.225
lradius 13.7131
lwrist -47.9715
lhand -11.7849 -18.5755
lfingers 7.12502
lthumb 14.2642 10.9147
rfemur 5.29536 -8.75241 11.2889
rtibia 30.9811
rfoot -19.4717 4.93695
rtoes -9.47149
lfemur 16.5632 -4.12314 -10.9126
ltibia 24.259
lfoot 13.0585 12.6683
ltoes -33.0684
1370
root -2.32021 17.2429 -5.48456 -34.7625 -66.0476 20.309
lowerback 31.8508 -2.42728 2.34483
upperback 2.65269 -3.08541 -3.25497
thorax -13.9391 -1.71199 -3.51845
lowerneck 2.05579 -19.2253 9.38926
upperneck -9.58025 -24.8869 5.94206
head -3.91227 -12.8766 1.60621
rclavicle 4.9895e-014 2.46493e-014
rhumerus 53.4559 11.9126 34.9715
rradius 111.621
rwrist 22.8812
rhand -24.968 -2.41589
rfingers 7.12502
rthumb 1.54248 -32.3901
lclavicle 4.9895e-014 2.46493e-014
lhumerus 160.582 142.694 224.601
lradius 13.8322
lwrist -47.2265
lhand -11.694 -18.5206
lfingers 7.12502
lthumb 14.3519 10.9633
rfemur 5.11505 -8.82514 11.2237
rtibia 31.3521
rfoot -19.5456 5.0043
rtoes -9.11648
lfemur 16.5508 -4.09184 -10.9052
ltibia 24.2034
lfoot 12.9065 12.6172
ltoes -33.1426
1371
root -2.33174 17.2316 -5.5032 -34.8992 -65.8675 20.4835
lowerback 32.0092 -2.39844 2.33455
upperback 2.61988 -3.0542 -3.28175
thorax -14.0441 -1.6987 -3.5509
lowerneck 1.85233 -19.2931 9.48431
upperneck -9.67745 -24.9939 5.95374
head -3.92343 -12.9353 1.5918
rclavicle 3.74709e-014 -7.55382e-015
rhumerus 54.0448 12.3094 35.0936
rradius 113.046
rwrist 23.5693
rhand -26.2356 -2.10592
rfingers 7.12502
rthumb 0.318199 -32.0854
lclavicle 3.74709e-014 -7.55382e-015
lhumerus 160.939 143.243 224.785
lradius 13.8642
lwrist -46.8675
lhand -11.5705 -18.5895
lfingers 7.12502
lthumb 14.4709 10.886
rfemur 4.94096 -8.87237 11.1323
rtibia 31.7437
rfoot -19.6921 4.99478
rtoes -8.98347
lfemur 16.5446 -4.03723 -10.9206
ltibia 24.1337
lfoot 12.7499 12.5773
ltoes -33.1379
1372
root -2.34449 17.219 -5.52652 -34.9431 -65.7038 20.5727
lowerback 32.1398 -2.35743 2.30138
upperback 2.5896 -3.01285 -3.29147
thorax -14.1309 -1.67894 -3.55745
lowerneck 1.76493 -19.356 9.59605
upperneck -9.86603 -25.0737 6.01211
head -3.9848 -12.9865 1.6095
rclavicle -1.9133e-014 1.94809e-014
rhumerus 54.3739 12.5877 34.9012
rradius 114.295
rwrist 24.4041
rhand -27.454 -1.83296
rfingers 7.12502
rthumb -0.858586 -31.811
lclavicle -1.9133e-014 1.94809e-014
lhumerus 161.247 143.826 224.915
lradius 13.8981
lwrist -46.4851
lhand -11.5358 -18.6183
lfingers 7.12502
lthumb 14.5043 10.8547
rfemur 4.72965 -8.85216 11.13
rtibia 32.1655
rfoot -19.8248 4.88763
rtoes -8.72207
lfemur 16.5205 -3.91469 -10.835
ltibia 24.0395
lfoot 12.6028 12.4391
ltoes -33.2418
